# xmcd CD database file
#
# Track frame offsets:
#	150
#	84522
#	130022
#
# Disc length: 3776 seconds
#
# Revision: 1
# Processed by: cddbd v1.5.2PL0 Copyright (c) Steve Scherf et al.
# Submitted via: CDex 1.70beta2
#
DISCID=1a0ebe03
DTITLE=Mitsuhiro - おふろ美人
DYEAR=1996
DGENRE=New Age
TTITLE0=半身浴タイム
TTITLE1=半身浴後の洗身タイム
TTITLE2=中温反復浴タイム
EXTD=YEAR: 1996
EXTT0=
EXTT1=
EXTT2=
PLAYORDER=
